<svg xmlns="http://www.w3.org/2000/svg" xml:space="preserve" width="655.359" height="655.359" style="shape-rendering:geometricPrecision;text-rendering:geometricPrecision;image-rendering:optimizeQuality;fill-rule:evenodd;clip-rule:evenodd" viewBox="0 0 6.827 6.827"><defs>
</defs><g id="Layer_x0020_1"><path class="fil0" d="M3.364 2.24a.215.215 0 0 0 .152-.364.215.215 0 0 0-.303 0 .213.213 0 0 0 0 .302.211.211 0 0 0 .15.063zm.302.089a.426.426 0 1 1-.604-.602.426.426 0 0 1 .604.602z"/><path class="fil0" d="m2.005 1.931.951.978.03.074v.857l-.003.027-.41 1.572v.001c-.02.071-.014.117.006.14a.045.045 0 0 0 .021.015.077.077 0 0 0 .039.001c.046-.01.096-.05.13-.127l.437-1.298.024-.072h.257l.026.07.473 1.303c.026.074.076.113.124.122a.091.091 0 0 0 .04-.001.053.053 0 0 0 .025-.015c.02-.021.027-.066.004-.137v-.003l-.442-1.57-.004-.028v-.857l.03-.074.954-.98.001-.001c.03-.03.04-.067.031-.094a.054.054 0 0 0-.013-.023.042.042 0 0 0-.02-.011c-.035-.01-.093.01-.169.08l-.001.002-.847.754-.071.027h-.535l-.07-.027-.849-.754c-.07-.06-.124-.078-.16-.069a.047.047 0 0 0-.034.035c-.007.024 0 .055.025.083zm.768 1.095-.923-.949-.003-.002a.298.298 0 0 1-.071-.288.265.265 0 0 1 .187-.18c.097-.025.222 0 .352.116l.818.727h.454l.817-.727c.138-.128.269-.156.369-.129a.255.255 0 0 1 .116.069c.03.03.052.069.064.11a.306.306 0 0 1-.083.304l-.923.949v.8l.436 1.552c.048.156.016.273-.054.347a.264.264 0 0 1-.12.073.303.303 0 0 1-.136.006.38.38 0 0 1-.287-.26l-.425-1.168-.391 1.166-.004.008a.414.414 0 0 1-.284.254.287.287 0 0 1-.144-.005.257.257 0 0 1-.124-.083c-.06-.074-.086-.187-.046-.332l.405-1.556v-.802z"/></g><g id="Layer_x0020_1_0"><path class="fil0" d="M1.6 1.28h3.52v.213H1.6z"/><path class="fil0" d="M1.25.747h.278a.179.179 0 0 1 .179.179v.92c0 .05-.02.094-.053.126a.178.178 0 0 1-.126.053H1.25a.186.186 0 0 1-.127-.051.176.176 0 0 1-.056-.128v-.92c0-.05.022-.096.056-.128A.186.186 0 0 1 1.25.747zm.243.213H1.28v.852h.213V.96zM5.197.747h.277a.179.179 0 0 1 .179.179v.92a.178.178 0 0 1-.179.179h-.277a.186.186 0 0 1-.127-.051.176.176 0 0 1-.056-.128v-.92c0-.05.022-.096.056-.128a.186.186 0 0 1 .127-.051zM5.44.96h-.213v.852h.213V.96z"/><path style="fill:none" d="M0 0h6.827v6.827H0z"/></g></svg>