<svg xmlns="http://www.w3.org/2000/svg" viewBox="0 0 64 64" style="enable-background:new 0 0 64 64" xml:space="preserve"><path style="fill:#abd8c7" d="M62.366 19.39c0 .008.004.016 0 .024L55.63 43.636l-9.189-9.861-1.174 1.092 9.772 10.485a.792.792 0 0 1-.566.249H14.519a.782.782 0 0 1-.636-.318.782.782 0 0 1-.147-.469l15.562-10.97-.925-1.308-14.022 9.886 6.495-23.357 15.778 14.339a2.423 2.423 0 0 0 1.581.587c.448 0 .896-.122 1.284-.375L62.366 19.39z"/><path style="fill:#9ac1b1" d="m59.418 21.223-5.671 20.392 1.883 2.021 6.736-24.221c.004-.008 0-.016 0-.024l-2.948 1.832zM34.18 33.404a2.423 2.423 0 0 0 1.581.587c.422 0 .843-.113 1.214-.337a2.405 2.405 0 0 1-.35-.25l-15.778-14.34-.493 1.774L34.18 33.404z"/><path style="fill:#47705d" d="M0 37.98v1.601h11.161V37.98H0zm2.298-7.461v1.601h11.161v-1.601H2.298zm2.082-7.461v1.605h11.157v-1.605H4.38zm59.127-5.314a2.373 2.373 0 0 0-1.911-.945H21.642a2.414 2.414 0 0 0-2.319 1.756l-7.119 25.598a2.38 2.38 0 0 0 .403 2.099 2.377 2.377 0 0 0 1.911.949h39.954a2.413 2.413 0 0 0 2.319-1.76l7.119-25.598a2.382 2.382 0 0 0-.403-2.099zm-2.58.656L38.634 32.263a.8.8 0 0 1-.945-.057L22.497 18.4h38.43zm1.439 1.015L55.63 43.636l-9.189-9.861-1.174 1.092 9.772 10.485a.792.792 0 0 1-.566.249H14.519a.782.782 0 0 1-.636-.318.782.782 0 0 1-.147-.469l15.562-10.97-.925-1.308-14.022 9.886 6.495-23.357 15.778 14.339a2.423 2.423 0 0 0 1.581.587c.448 0 .896-.122 1.284-.375L62.366 19.39c0 .008.004.017 0 .025z"/></svg>